<svg width="54" height="44" viewBox="0 0 54 44" fill="none" xmlns="http://www.w3.org/2000/svg">
<g clip-path="url(#clip0_2_416)">
<path opacity="0.2" d="M18.6148 12.0745H11.5325L1.04352 18.7139L4.49503 24.2232L10.8601 20.1265V44H18.6148V12.0745Z" fill="#F58634"/>
<path fill-rule="evenodd" clip-rule="evenodd" d="M23.7195 5.546C23.3655 5.7076 23.0526 6.20685 23.0521 6.61057C23.052 6.77271 23.2052 7.17875 23.398 7.52727C24.2824 9.12548 24.5215 10.0075 24.5215 11.6717C24.5215 12.3375 24.5605 13.0252 24.6081 13.1998C24.6687 13.4218 25.3863 14.2672 26.9963 16.0133C29.4519 18.6765 29.4869 18.73 29.1075 19.2366C28.9639 19.4285 28.8348 19.4908 28.5812 19.4908C28.2675 19.4908 28.1412 19.3796 26.677 17.8141C24.9976 16.0183 24.8224 15.8978 24.2033 16.1124C23.7423 16.2722 23.4192 16.7159 23.4192 17.1887C23.4192 17.6817 23.5222 17.8852 24.0742 18.4823L24.5245 18.9695L24.5001 21.5701L24.4755 24.1707L23.3134 22.9646C22.6741 22.3012 21.9813 21.4794 21.7736 21.1384C21.1292 20.0805 21.1228 20.0269 21.1228 15.707C21.1228 12.6705 21.0963 11.7964 20.9973 11.5512C20.8158 11.1029 18.4878 8.08152 18.2 7.92107C17.6693 7.62512 16.9319 7.87136 16.6802 8.42862C16.369 9.11757 16.442 9.28905 17.8161 11.0961L18.8264 12.4247V16.0411C18.8264 18.0301 18.865 19.8711 18.9121 20.1322C19.2482 21.9939 20.6415 23.9052 23.5443 26.4866L24.5208 27.355L24.5241 32.5173C24.526 35.3567 24.5631 37.9698 24.6066 38.3242C24.7704 39.6583 25.6042 40.8498 26.6987 41.3137L27.2312 41.5395L33.4559 41.5673C38.9344 41.592 39.7166 41.5773 39.9815 41.4453C40.7946 41.04 40.7994 39.7254 39.9893 39.3217C39.7365 39.1955 38.8734 39.1754 33.753 39.1754C27.1958 39.1754 27.4023 39.194 27.0435 38.5707C26.8692 38.2681 26.8631 38.004 26.8427 29.8397C26.8311 25.2093 26.8373 21.4207 26.8565 21.4207C26.8757 21.4207 27.1126 21.5288 27.3828 21.661C28.4108 22.1637 29.8145 21.9103 30.6335 21.0742C31.2683 20.4262 31.5482 19.7199 31.5482 18.7672C31.5482 17.49 31.4144 17.2783 28.9388 14.6392L26.8179 12.378V11.3088C26.8179 9.82033 26.5506 8.69011 25.8559 7.24135C25.0295 5.5179 24.5735 5.15594 23.7195 5.546ZM39.4459 5.49822C38.3671 5.66476 37.1226 6.18331 36.166 6.86484C32.0018 9.83133 31.3953 15.9809 34.9011 19.6896C35.7851 20.6245 36.4422 21.1078 37.4592 21.5705C38.2984 21.9521 39.7909 22.2891 40.6422 22.2891C41.4931 22.2891 42.9859 21.9521 43.8251 21.5705C46.5616 20.3255 48.4395 17.5628 48.6482 14.4745C48.7132 13.5137 48.5894 13.1419 48.1007 12.829C47.306 12.3198 46.3856 12.9521 46.3816 14.0101C46.3768 15.2042 45.7489 16.8823 44.9508 17.8335C44.3347 18.568 43.3787 19.2391 42.495 19.5575C41.8359 19.7951 41.6099 19.8281 40.6422 19.8281C39.6747 19.8281 39.4481 19.7951 38.7907 19.558C36.7403 18.8191 35.2875 16.9686 34.9751 14.6985C34.7558 13.106 35.1314 11.527 36.0265 10.2787C37.1136 8.76217 38.84 7.8152 40.5169 7.8152C41.4604 7.8152 42.0556 6.89688 41.6481 6.06925C41.3461 5.45588 40.7392 5.29848 39.4459 5.49822ZM43.9044 10.5652C42.1589 12.3962 40.6921 13.8943 40.6451 13.8943C40.5984 13.8943 40.0991 13.4166 39.5359 12.8328C38.5688 11.8305 38.4909 11.7714 38.1364 11.7714C37.6018 11.7714 37.3409 11.9023 37.1173 12.2823C36.8905 12.6677 36.8667 13.1187 37.0534 13.489C37.1257 13.6323 37.694 14.2795 38.3164 14.9272C39.5171 16.1769 39.9893 16.4953 40.6422 16.4953C41.4192 16.4953 41.6647 16.2852 45.1261 12.66C46.9356 10.7649 48.4751 9.09711 48.5475 8.9538C48.9392 8.17967 48.363 7.23626 47.4989 7.23626H47.0782L43.9044 10.5652ZM44.7326 22.509C44.6077 22.5754 44.4115 22.7766 44.2961 22.9561C44.0896 23.2783 44.0867 23.3216 44.0867 26.2327V29.1828L43.5124 28.5902C42.6512 27.7011 42.3099 27.5478 41.1933 27.5489C40.1381 27.5498 39.7622 27.7002 39.1133 28.382C38.5236 29.0014 38.254 29.7086 38.254 30.6357C38.254 31.9128 38.3881 32.1246 40.8633 34.7637L42.9844 37.0248L42.9859 38.1241C42.9877 39.7633 43.3673 41.1296 44.295 42.839C44.7025 43.5897 45.1379 44 45.527 44C46.1394 44 46.7493 43.4102 46.7501 42.8174C46.7505 42.6711 46.505 42.0632 46.2048 41.4665C45.4527 39.9709 45.2808 39.2638 45.2808 37.6638C45.2808 36.963 45.2382 36.2719 45.186 36.1279C45.1342 35.984 44.0595 34.7469 42.7978 33.3789C40.3519 30.726 40.3163 30.6717 40.6947 30.1663C40.8376 29.9755 40.9692 29.9114 41.223 29.9093C41.5398 29.9066 41.6514 30.0044 43.0304 31.4907C43.8387 32.362 44.5904 33.1231 44.7006 33.1821C44.996 33.3399 45.5365 33.3127 45.8393 33.1247C46.3595 32.8018 46.383 32.6375 46.383 29.3221V26.3008L46.8508 26.7797C47.5095 27.4542 48.0956 28.2724 48.3855 28.922L48.6335 29.4778L48.6794 33.627C48.7114 36.5084 48.7576 37.8354 48.8315 37.97C49.0284 38.3295 51.3523 41.3349 51.5401 41.4731C51.7859 41.6537 52.3602 41.639 52.7217 41.4426C53.217 41.1736 53.4275 40.3279 53.1185 39.8482C53.034 39.7169 52.52 39.021 51.9762 38.3013L50.9871 36.9932L50.957 33.0425L50.9265 29.0919L50.6873 28.4413C50.1608 27.0099 49.1853 25.6792 47.4305 23.9993C45.8073 22.445 45.3392 22.1865 44.7326 22.509ZM29.7985 27.2634C28.9943 27.6804 29.0032 28.9761 29.813 29.3798C30.2316 29.5884 32.6815 29.5884 33.1001 29.3798C33.9174 28.9723 33.9174 27.6675 33.1001 27.26C32.6834 27.0523 30.2008 27.0549 29.7985 27.2634ZM30.0341 33.1923C29.2414 33.3951 28.9157 34.4897 29.4587 35.1262C29.6097 35.3033 29.8591 35.4582 30.0787 35.5114C30.5535 35.6265 36.1209 35.6278 36.5924 35.513C37.372 35.323 37.7785 34.4509 37.3904 33.8011C36.9941 33.1374 37.0455 33.1464 33.5275 33.1275C31.7823 33.1181 30.2102 33.1472 30.0341 33.1923Z" fill="#F58634"/>
</g>
<defs>
<clipPath id="clip0_2_416">
<rect width="52.5405" height="44" fill="white" transform="translate(0.729736)"/>
</clipPath>
</defs>
</svg>
