<svg width="53" height="44" viewBox="0 0 53 44" fill="none" xmlns="http://www.w3.org/2000/svg">
<g clip-path="url(#clip0_2_423)">
<path opacity="0.2" d="M10.7277 11.3682C6.00927 11.3682 2.44823 13.6755 0.0445251 17.0658L4.62937 20.9741C6.27635 18.761 7.7898 17.7251 9.88191 17.7251C12.0631 17.7251 13.3984 19.1377 13.3984 21.4921C13.3984 25.0708 11.1283 27.9431 1.15735 38.1611V44H21.3218L22.1675 37.6432H10.149C19.6303 28.7907 21.4998 25.2591 21.4998 20.5974C21.4998 15.6532 17.8052 11.3682 10.7277 11.3682Z" fill="#F58634"/>
<path fill-rule="evenodd" clip-rule="evenodd" d="M29.253 5.11464C26.7361 5.63523 24.6702 7.62249 23.9707 10.1959L23.7474 11.0172L21.0199 11.0655C18.4193 11.1116 18.271 11.1242 17.8356 11.3358C16.8054 11.8363 16.1609 12.5713 15.8624 13.5857C15.6959 14.1518 15.6891 14.6833 15.6891 27.2864C15.6891 41.5468 15.6708 41.0154 16.1934 41.8915C16.5461 42.4824 17.1396 43.0486 17.6986 43.3281L18.201 43.5789H24.6158H31.0306L31.3164 43.2767C31.8826 42.6777 31.7115 41.67 30.9894 41.3508C30.7263 41.2346 29.6916 41.2118 24.6876 41.2118H18.7007L18.3594 40.8811L18.0183 40.5503L17.9944 27.4914C17.9683 13.1418 17.9359 14.0068 18.5133 13.6459C18.748 13.4993 19.1175 13.4811 21.8487 13.4811C25.1755 13.4811 25.3418 13.4586 25.7152 12.9564C25.8351 12.7951 25.9273 12.4914 25.961 12.1475C26.1338 10.3801 26.6079 9.39793 27.7552 8.43089C29.3335 7.10063 31.73 7.10063 33.3083 8.43089C34.4556 9.39793 34.9298 10.3801 35.1026 12.1475C35.1362 12.4914 35.2284 12.7951 35.3484 12.9564C35.7218 13.4586 35.888 13.4811 39.2149 13.4811C41.8795 13.4811 42.3195 13.5017 42.5362 13.6372C43.0244 13.9424 43.0419 14.0319 43.0908 16.5082L43.1364 18.8106L43.4776 19.1411C43.7611 19.4156 43.8891 19.4717 44.2328 19.4717C44.5762 19.4717 44.7042 19.4156 44.9877 19.1411L45.3289 18.8105L45.3563 16.5786C45.3785 14.7817 45.3555 14.2293 45.2388 13.7447C44.9859 12.6982 44.3514 11.9059 43.3732 11.4155L42.7712 11.1138L40.0435 11.0655L37.3162 11.0172L37.0929 10.1959C36.4584 7.86198 34.6199 5.9315 32.4028 5.27096C31.5226 5.00885 30.1048 4.93849 29.253 5.11464ZM30.1064 9.89937C28.8914 10.3088 28.4309 11.8061 29.2254 12.7634C29.9237 13.6047 30.903 13.6745 31.6736 12.9381C32.7434 11.9157 32.1609 10.0607 30.7089 9.86583C30.5109 9.83928 30.2398 9.85437 30.1064 9.89937ZM23.0653 20.8973C22.5671 21.2241 22.4016 21.9849 22.7118 22.523C23.0682 23.1414 23.0841 23.1433 27.6684 23.1431C31.4314 23.143 31.8392 23.1276 32.1237 22.9741C32.5665 22.7352 32.7924 22.3699 32.7863 21.9021C32.7798 21.4061 32.6507 21.1525 32.2842 20.9162C32.0067 20.7372 31.7918 20.7286 27.6546 20.7307C23.731 20.7327 23.2919 20.7486 23.0653 20.8973ZM40.8075 21.9941C36.195 22.5447 32.5565 26.2301 31.8084 31.1091C31.1218 35.587 33.2917 40.189 37.1002 42.3319C42.7088 45.4883 49.6642 42.5762 51.668 36.2331C52.8874 32.3726 52.0029 28.1805 49.3577 25.2824C47.579 23.334 45.5529 22.2879 42.9803 21.99C41.9944 21.8758 41.7952 21.8761 40.8075 21.9941ZM43.5476 24.5108C46.0528 25.0311 48.2354 26.9045 49.2654 29.4195C49.7641 30.6368 49.8878 31.3247 49.8834 32.8539C49.8798 34.0354 49.8484 34.3141 49.6353 35.0566C48.9578 37.4187 47.5155 39.2585 45.5113 40.3156C41.5559 42.4029 36.797 40.7116 34.7924 36.5059C34.6353 36.1763 34.3966 35.524 34.2621 35.0566C34.0448 34.3014 34.0175 34.0504 34.0183 32.8056C34.019 31.6886 34.0576 31.2557 34.209 30.6709C35.3473 26.272 39.3415 23.6373 43.5476 24.5108ZM23.2036 26.8616C22.4709 27.1986 22.3323 28.2272 22.9403 28.8166L23.2676 29.1339H25.9648H28.662L28.9893 28.8166C29.6055 28.2193 29.4564 27.1892 28.7059 26.8575C28.2557 26.6584 23.6378 26.6619 23.2036 26.8616ZM45.6 28.8392C45.3052 28.9657 44.9078 29.4851 42.7712 32.5379C41.666 34.1171 40.7211 35.4103 40.6714 35.4118C40.6222 35.4132 40.0223 34.8242 39.3393 34.1029C38.244 32.9465 38.055 32.7859 37.7398 32.7451C36.9951 32.6487 36.3317 33.3707 36.4665 34.1309C36.5179 34.4208 36.7736 34.7486 37.8511 35.9039C39.3995 37.565 39.8169 37.8549 40.6579 37.8527C41.4077 37.8506 41.912 37.6185 42.3837 37.0581C42.5968 36.805 43.7509 35.2015 44.948 33.495C47.0189 30.5434 47.1251 30.3715 47.1251 29.9653C47.1251 29.4501 46.9299 29.1065 46.5198 28.9007C46.1885 28.7344 45.8908 28.7145 45.6 28.8392ZM23.0653 32.9751C22.3263 33.4598 22.4066 34.6591 23.2048 35.0598C23.6847 35.3007 28.2449 35.3007 28.7248 35.0598C29.3174 34.7623 29.5385 34.0838 29.2515 33.444C28.9733 32.8238 28.877 32.8053 25.9507 32.8082C23.6318 32.8104 23.2859 32.8304 23.0653 32.9751Z" fill="#F58634"/>
</g>
<defs>
<clipPath id="clip0_2_423">
<rect width="52.54" height="44" fill="white"/>
</clipPath>
</defs>
</svg>
