<svg width="52" height="44" viewBox="0 0 52 44" fill="none" xmlns="http://www.w3.org/2000/svg">
<path opacity="0.2" d="M11.3489 11.0767C7.19251 11.0767 3.69237 12.5908 0.892259 15.4354L4.74241 19.7022C6.40498 18.0047 8.2863 17.0412 10.4301 17.0412C12.6177 17.0412 14.0615 18.1882 14.0615 20.2987C14.0615 22.5009 12.6615 23.8773 10.1239 23.8773H8.3738L7.49877 29.383H10.0364C13.0552 29.383 14.5865 30.6217 14.5865 33.5122C14.5865 36.1274 12.7927 37.5497 10.3426 37.5497C8.11129 37.5497 6.40498 36.678 4.43615 34.6592L0.323486 38.8343C2.64233 41.8165 6.09871 43.6976 10.8677 43.6976C18.568 43.6976 22.5494 39.2931 22.5494 34.1545C22.5494 29.1077 19.3992 26.8596 15.7241 26.4466C19.4867 25.2537 21.5868 22.7303 21.5868 18.9681C21.5868 14.5177 17.9992 11.0767 11.3489 11.0767Z" fill="#F58634"/>
<path fill-rule="evenodd" clip-rule="evenodd" d="M33.5478 5.42429C33.1735 5.63952 17.4506 18.0793 16.9671 18.5428C16.763 18.7383 16.5008 19.1195 16.3842 19.3899L16.1723 19.8813L16.1484 30.2403C16.1248 40.4247 16.1275 40.6079 16.305 41.1054C16.5184 41.7033 17.0547 42.3077 17.6411 42.6104L18.0553 42.8248L23.3686 42.8504C29.2445 42.8786 29.0423 42.8977 29.4018 42.2795C29.5708 41.9888 29.577 41.7616 29.5776 35.8194C29.5782 29.8771 29.5844 29.6498 29.7533 29.3595C30.0982 28.7662 30.0913 28.7672 34.0609 28.7672C38.0306 28.7672 38.0238 28.7662 38.3685 29.3595C38.5374 29.6498 38.5438 29.8771 38.5442 35.8194C38.5449 41.7616 38.551 41.9888 38.7199 42.2795C39.075 42.8898 38.8946 42.8718 44.6214 42.8718C50.6139 42.8718 50.3482 42.9056 51.1985 42.0335C52.0577 41.1517 52.0011 42.0207 51.9735 30.1714L51.9494 19.8813L51.7422 19.4011C51.4753 18.7826 51.22 18.5347 49.1924 16.9257L47.5111 15.5915V11.4977C47.5111 6.96553 47.5058 6.92135 46.9384 6.59552C46.6906 6.45306 46.3123 6.43513 43.5617 6.43513C40.7533 6.43513 40.4417 6.45062 40.2229 6.60097C39.7793 6.90581 39.686 7.1691 39.6287 8.28185L39.5756 9.31795L37.1097 7.37267C35.7534 6.30283 34.5503 5.38969 34.4362 5.34363C34.1251 5.21791 33.8657 5.24149 33.5478 5.42429ZM37.256 10.4314C40.2828 12.819 40.3649 12.8762 40.7755 12.8762C41.1037 12.8762 41.2607 12.8192 41.4895 12.6176C41.8776 12.2755 41.9468 11.9142 41.9497 10.2198L41.9518 8.83286H43.6104H45.2694V12.6458C45.2694 15.7866 45.2924 16.5049 45.3989 16.7214C45.4742 16.8738 46.3923 17.6625 47.5861 18.6005C48.88 19.6168 49.6636 20.2942 49.6969 20.4252C49.7263 20.5398 49.7507 25.0574 49.7514 30.4644C49.7525 37.9867 49.7274 40.3217 49.6449 40.4082C49.5643 40.4928 48.4461 40.521 45.1651 40.521H40.7924L40.7669 34.8086L40.7411 29.0963L40.4901 28.5321C40.0533 27.551 39.2335 26.8109 38.3011 26.5563C37.5512 26.3514 30.5705 26.3514 29.8207 26.5563C28.8885 26.8109 28.0686 27.551 27.6319 28.5321L27.3807 29.0963L27.355 34.8086L27.3293 40.521H22.9568C19.6756 40.521 18.5576 40.4928 18.4768 40.4082C18.3167 40.2401 18.3211 20.5013 18.4813 20.2785C18.6477 20.047 33.9072 7.99807 34.0417 7.99186C34.1052 7.98897 35.5516 9.08675 37.256 10.4314Z" fill="#F58634"/>
</svg>
