
<svg width="159" height="44" viewBox="0 0 159 44" fill="none" xmlns="http://www.w3.org/2000/svg">
<mask id="mask0_2_308" style="mask-type:luminance" maskUnits="userSpaceOnUse" x="0" y="0" width="159" height="44">
<path d="M159 0.366669H0V43.6333H159V0.366669Z" fill="white"/>
</mask>
<g mask="url(#mask0_2_308)">
<path fill-rule="evenodd" clip-rule="evenodd" d="M18.2334 6.83363L18.2739 9.02176L18.3865 37.3702V39.7576H18.3549V39.917C18.3523 40.0342 18.3191 40.1488 18.2583 40.2497C18.1977 40.3505 18.1115 40.4343 18.0083 40.4928L12.3132 43.6333L12.2006 18.7178L12.1556 12.2774V4.26457H12.1872V4.10511C12.1882 4.022 12.2034 3.93965 12.2322 3.86149C12.2916 3.71199 12.4012 3.58696 12.5428 3.50713L18.2289 0.366669V6.83363H18.2334Z" fill="#EE8600"/>
<path fill-rule="evenodd" clip-rule="evenodd" d="M6.16782 7.12154L0.481686 10.262C0.339621 10.338 0.230722 10.4624 0.175545 10.6119C0.146814 10.6901 0.131596 10.7725 0.130524 10.8555V21.4286C0.130524 20.7154 0.130524 26.013 0.130524 35.6294L6.16782 32.201V22.0708C7.67603 21.2204 9.89106 19.9802 11.4533 19.1165L11.4263 12.366L6.16782 15.316V7.12154Z" fill="#00285B" stroke="white" stroke-width="0.57" stroke-miterlimit="22.93"/>
<path fill-rule="evenodd" clip-rule="evenodd" d="M24.3787 15.3912V13.6194L30.416 10.4213V33.1443C30.4172 33.2276 30.4019 33.3104 30.371 33.3879C30.3133 33.5372 30.2052 33.6623 30.0649 33.7423L24.3787 36.8783V28.6839L19.1248 31.6162L19.0978 24.8657C20.597 24.033 22.8346 22.7795 24.3787 21.9113V15.3912Z" fill="#00285B" stroke="white" stroke-width="0.57" stroke-miterlimit="22.93"/>
<path fill-rule="evenodd" clip-rule="evenodd" d="M35.769 12.5254H39.186V19.0721H45.0793V12.5254H48.4693V29.8755H45.0793V22.2613H39.186V29.8755H35.769V12.5254Z" fill="#00285B" stroke="white" stroke-width="0.57" stroke-miterlimit="22.93"/>
<path fill-rule="evenodd" clip-rule="evenodd" d="M65.1855 24.3652H54.6867C54.8055 25.2156 55.2362 25.9938 55.8977 26.5533C56.608 27.1099 57.4982 27.3961 58.4054 27.3596C58.9905 27.369 59.5714 27.2617 60.1131 27.0439C60.6548 26.8261 61.1459 26.5026 61.5569 26.0927L64.2897 27.3861C63.6679 28.2906 62.8219 29.0239 61.8315 29.5167C60.7641 30.0003 59.5982 30.2367 58.4235 30.2077C57.5029 30.2384 56.5858 30.0824 55.7291 29.7493C54.8725 29.4163 54.0947 28.9135 53.4441 28.272C52.8107 27.6499 52.313 26.907 51.9816 26.0891C51.6504 25.271 51.4922 24.3951 51.5173 23.5148C51.4889 22.6169 51.6449 21.7226 51.976 20.8854C52.3071 20.0482 52.8064 19.2853 53.4441 18.6424C54.0673 18.0082 54.8178 17.5087 55.648 17.1754C56.4781 16.8422 57.3696 16.6826 58.2659 16.7067C59.1902 16.6742 60.1116 16.8288 60.9728 17.161C61.834 17.4932 62.6166 17.9959 63.2721 18.638C64.5553 19.9269 65.199 21.619 65.199 23.7362V24.3431L65.1855 24.3652ZM61.9306 21.8538C61.7194 21.155 61.2693 20.5494 60.6565 20.1395C60.0047 19.6976 59.2283 19.4683 58.4369 19.484C57.5752 19.467 56.7312 19.7267 56.0328 20.2237C55.5038 20.6623 55.0926 21.222 54.8353 21.8538H61.9306Z" fill="#00285B" stroke="white" stroke-width="0.57" stroke-miterlimit="22.93"/>
<path d="M70.7817 12.0912H67.5132V29.8754H70.7817V12.0912Z" fill="#00285B" stroke="white" stroke-width="0.57" stroke-miterlimit="22.93"/>
<path fill-rule="evenodd" clip-rule="evenodd" d="M77.0082 17.0435V18.452C77.5584 17.9055 78.2093 17.4666 78.9259 17.1586C79.6239 16.8667 80.3741 16.716 81.1318 16.7157C81.9499 16.7074 82.7606 16.8719 83.5086 17.1983C84.2566 17.5245 84.9246 18.0049 85.4673 18.607C86.6901 19.9382 87.3365 21.6864 87.2686 23.4794C87.2947 24.3597 87.1432 25.2364 86.8229 26.059C86.5034 26.8815 86.0212 27.6337 85.4046 28.2721C84.8567 28.8787 84.1841 29.3635 83.4309 29.6942C82.6785 30.0249 81.8618 30.194 81.0377 30.19C80.3189 30.1949 79.606 30.061 78.9394 29.7958C78.222 29.4846 77.5688 29.0462 77.0127 28.5024V36.1166H73.7441V17.0435H77.0082ZM80.4391 19.7011C79.965 19.6859 79.494 19.7679 79.0543 19.9418C78.6147 20.1156 78.2168 20.3776 77.8861 20.711C77.5412 21.0737 77.274 21.5 77.0986 21.9654C76.9231 22.4308 76.8433 22.9259 76.8642 23.4219C76.841 23.926 76.9194 24.4298 77.0948 24.904C77.2703 25.3783 77.539 25.8139 77.8861 26.1858C78.2116 26.53 78.6087 26.8021 79.0491 26.9838C79.4903 27.1656 79.965 27.2529 80.4435 27.24C80.9168 27.2479 81.3863 27.1564 81.8215 26.9716C82.256 26.7867 82.6456 26.5128 82.9644 26.168C83.6586 25.4256 84.0281 24.4435 83.9908 23.4351C84.0289 22.439 83.6668 21.4681 82.9823 20.7332C82.6598 20.3884 82.2657 20.1158 81.8268 19.9339C81.3878 19.752 80.9146 19.6651 80.4391 19.679V19.7011Z" fill="#00285B" stroke="white" stroke-width="0.57" stroke-miterlimit="22.93"/>
<path fill-rule="evenodd" clip-rule="evenodd" d="M90.2396 12.5254H92.0087V19.7985H101.013V12.5254H102.783V29.8755H101.013V21.4906H92.0087V29.8755H90.2396V12.5254ZM112.962 16.7289C113.902 16.7082 114.836 16.8892 115.698 17.2594C116.56 17.6296 117.33 18.1802 117.954 18.8728C119.132 20.1508 119.775 21.8189 119.756 23.5437C119.737 25.2683 119.057 26.9223 117.851 28.1746C117.208 28.8105 116.442 29.315 115.6 29.6593C114.758 30.0036 113.855 30.1808 112.944 30.1808C112.032 30.1808 111.128 30.0036 110.286 29.6593C109.444 29.315 108.68 28.8105 108.036 28.1746C106.829 26.9233 106.147 25.269 106.128 23.5437C106.109 21.8184 106.753 20.1498 107.933 18.8728C108.56 18.1756 109.333 17.6216 110.2 17.2498C111.068 16.878 112.007 16.6971 112.953 16.7201L112.962 16.7289ZM112.962 18.3501C112.288 18.3409 111.619 18.4705 110.998 18.7306C110.378 18.9907 109.82 19.3756 109.36 19.8605C108.872 20.342 108.486 20.9152 108.228 21.5461C107.97 22.177 107.844 22.8525 107.856 23.5325C107.853 24.4386 108.089 25.3299 108.54 26.1193C108.974 26.8916 109.616 27.5309 110.395 27.9664C111.178 28.3933 112.058 28.6175 112.953 28.6175C113.847 28.6175 114.727 28.3933 115.509 27.9664C116.289 27.5309 116.931 26.8916 117.364 26.1193C117.817 25.3299 118.053 24.4386 118.049 23.5325C118.062 22.851 117.934 22.1741 117.674 21.5423C117.414 20.9106 117.027 20.337 116.537 19.8561C116.077 19.3707 115.518 18.9856 114.898 18.7254C114.278 18.4653 113.609 18.3359 112.935 18.3457L112.962 18.3501ZM122.866 17.0213H124.537V19.236C125.011 18.5258 125.623 17.9146 126.337 17.4376C127.145 16.9586 128.069 16.7044 129.012 16.7023C129.631 16.698 130.246 16.8233 130.812 17.07C131.346 17.2993 131.819 17.6463 132.195 18.0843C132.615 18.6036 132.934 19.1954 133.135 19.8296C133.62 18.9001 134.339 18.1086 135.225 17.5306C136.029 17.019 136.967 16.7468 137.925 16.7466C138.771 16.7311 139.603 16.9656 140.312 17.4199C141.009 17.8732 141.547 18.5277 141.851 19.2936C142.244 20.4531 142.415 21.674 142.356 22.8947V29.8932H140.636V22.877C140.687 21.9211 140.587 20.9632 140.339 20.0377C140.14 19.5256 139.78 19.0894 139.312 18.7931C138.797 18.4719 138.197 18.3084 137.588 18.3235C136.788 18.3212 136.007 18.5694 135.36 19.0322C134.686 19.5018 134.172 20.159 133.882 20.9191C133.582 21.7046 133.432 23.0157 133.432 24.8525V29.8755H131.762V23.3111C131.815 22.2515 131.716 21.19 131.47 20.1573C131.284 19.616 130.923 19.1494 130.443 18.8285C129.931 18.4867 129.324 18.3116 128.706 18.3279C127.918 18.3242 127.149 18.5644 126.508 19.0145C125.832 19.4715 125.311 20.1183 125.014 20.8704C124.631 22.0212 124.464 23.231 124.523 24.4405V29.8755H122.852V17.0301L122.866 17.0213ZM156.911 25.6144L158.324 26.3452C157.921 27.1538 157.376 27.8857 156.713 28.5068C156.113 29.0448 155.415 29.467 154.655 29.7514C153.828 30.0535 152.953 30.2036 152.071 30.1944C149.934 30.1944 148.266 29.5093 147.065 28.1391C145.899 26.8675 145.257 25.214 145.264 23.5015C145.247 21.9223 145.788 20.3863 146.794 19.1563C147.4 18.375 148.187 17.7475 149.089 17.3261C149.991 16.9047 150.983 16.7014 151.981 16.7333C153.009 16.6997 154.029 16.9076 154.959 17.3397C155.888 17.7719 156.699 18.4159 157.325 19.2182C158.302 20.4712 158.812 22.016 158.77 23.5946H146.979C146.959 24.9517 147.481 26.2626 148.434 27.2444C148.881 27.7075 149.423 28.0735 150.023 28.319C150.623 28.5646 151.269 28.6843 151.918 28.6707C152.583 28.6719 153.242 28.5579 153.867 28.334C154.454 28.1379 154.998 27.8376 155.474 27.4482C156.046 26.9128 156.531 26.2943 156.911 25.6144ZM156.911 22.1594C156.741 21.3941 156.407 20.6737 155.93 20.0465C155.466 19.4986 154.881 19.0634 154.219 18.7753C153.514 18.4521 152.745 18.2871 151.967 18.2925C150.746 18.2682 149.56 18.7003 148.649 19.5018C147.892 20.2262 147.359 21.1481 147.115 22.1594H156.911Z" fill="#EE8600"/>
<path fill-rule="evenodd" clip-rule="evenodd" d="M79.0163 32.8078H79.6866C79.9546 32.7928 80.2233 32.8258 80.4794 32.9053C80.6376 32.9697 80.7705 33.0832 80.8571 33.2286C80.9556 33.3902 81.0056 33.5761 81.0012 33.7646C81.0079 33.9579 80.9526 34.1483 80.8437 34.3094C80.7227 34.4652 80.5563 34.5811 80.3667 34.6416L81.1587 36.1121H80.4615L79.709 34.7124H79.6418V36.1121H79.0066V32.8078H79.0163ZM79.6508 34.1012H79.8531C79.9994 34.1143 80.1457 34.0867 80.2763 34.0215C80.3166 33.9902 80.3487 33.9495 80.3689 33.9031C80.3898 33.8567 80.398 33.8061 80.3935 33.7557C80.395 33.69 80.3749 33.6257 80.3368 33.5717C80.2987 33.5177 80.245 33.4767 80.1823 33.4545C80.0681 33.4232 79.9494 33.4113 79.8307 33.419H79.6508V34.1012ZM82.4964 32.8078H84.3282V33.4235H83.1309V34.0304H84.3282V34.6372H83.1309V35.5231H84.3282V36.1432H82.4964V32.8078ZM85.742 32.8078H87.3985V33.4146H86.3721V34.0304H87.3985V34.6372H86.3721V36.1121H85.742V32.8078ZM90.3613 32.7236C90.5897 32.7205 90.8159 32.7643 91.0256 32.852C91.2361 32.9397 91.425 33.0694 91.581 33.233C91.749 33.394 91.8803 33.5873 91.9692 33.8006C92.0573 34.014 92.0998 34.2429 92.0946 34.4733C92.0998 34.7001 92.058 34.9256 91.9707 35.1359C91.8841 35.3462 91.7549 35.5367 91.59 35.6958C91.428 35.8562 91.2346 35.9835 91.0226 36.0704C90.8099 36.1573 90.5822 36.202 90.3523 36.202C90.1224 36.202 89.894 36.1573 89.682 36.0704C89.4692 35.9835 89.2766 35.8562 89.1139 35.6958C88.8474 35.4217 88.6772 35.0706 88.6287 34.6942C88.5802 34.3179 88.6555 33.9361 88.8437 33.6051C88.9967 33.3425 89.2176 33.1241 89.4834 32.9717C89.7559 32.815 90.0679 32.7353 90.3836 32.7414L90.3613 32.7236ZM90.3613 33.3393C90.2157 33.3363 90.0716 33.3631 89.9373 33.418C89.8036 33.4729 89.6827 33.5547 89.5827 33.6583C89.4767 33.7655 89.3946 33.8926 89.3408 34.0319C89.2863 34.1712 89.2617 34.3198 89.2669 34.4688C89.2565 34.6369 89.2871 34.805 89.3557 34.9591C89.4244 35.1133 89.5304 35.2489 89.6633 35.3548C89.8619 35.5165 90.1119 35.6043 90.3702 35.6028C90.5143 35.6051 90.6576 35.5775 90.7905 35.5218C90.9226 35.4661 91.042 35.3835 91.1398 35.2794C91.3451 35.063 91.4593 34.7781 91.4593 34.4821C91.4593 34.1862 91.3451 33.9013 91.1398 33.6848C91.0406 33.5799 90.9196 33.4966 90.786 33.4402C90.6516 33.3837 90.5068 33.3554 90.3613 33.3571V33.3393ZM93.5622 32.8078H94.2377C94.5057 32.7925 94.7737 32.8255 95.0297 32.9053C95.1887 32.9705 95.3231 33.0837 95.4127 33.2286C95.5112 33.3902 95.5612 33.5761 95.5567 33.7646C95.565 33.9587 95.5075 34.1502 95.3948 34.3094C95.2761 34.4662 95.1111 34.5824 94.9215 34.6416L95.7098 36.1121H94.9939L94.2422 34.7124H94.1787V36.1121H93.5532V32.8078H93.5622ZM94.1967 34.1012H94.3997C94.5453 34.1136 94.6916 34.086 94.823 34.0215C94.8633 33.9902 94.8946 33.9495 94.9155 33.9031C94.9357 33.8567 94.9439 33.8061 94.9402 33.7557C94.9394 33.6894 94.9193 33.6245 94.8812 33.5697C94.8431 33.5171 94.7901 33.477 94.7282 33.4545C94.6125 33.4234 94.4923 33.4113 94.3728 33.419H94.1967V34.1012ZM97.3483 32.8078H97.9694L98.7487 35.1111L99.5318 32.8078H100.148L100.711 36.1121H100.095L99.7393 34.0304L99.0458 36.1121H98.4829L97.7581 34.0304L97.3931 36.121H96.7944L97.3707 32.8167L97.3483 32.8078ZM103.062 32.8078H103.705L104.993 36.1121H104.331L104.07 35.43H102.719L102.449 36.1121H101.747L103.043 32.8078H103.062ZM103.386 33.6937L102.936 34.832H103.836L103.386 33.6937ZM108.059 33.2507L107.586 33.6627C107.535 33.5706 107.464 33.4916 107.376 33.4323C107.288 33.373 107.188 33.3351 107.082 33.3216C107.007 33.3184 106.933 33.342 106.875 33.388C106.85 33.4053 106.83 33.4278 106.816 33.454C106.802 33.4801 106.794 33.5091 106.793 33.5387C106.794 33.5956 106.814 33.6505 106.852 33.6937C106.991 33.8519 107.142 33.9998 107.303 34.1366C107.546 34.3359 107.694 34.4644 107.753 34.5176C107.865 34.6236 107.958 34.748 108.027 34.8852C108.082 35.0066 108.11 35.1379 108.108 35.2706C108.112 35.3965 108.088 35.5217 108.038 35.6377C107.989 35.7539 107.914 35.8582 107.82 35.9438C107.617 36.1227 107.35 36.2165 107.077 36.2052C106.856 36.2097 106.638 36.1495 106.452 36.0324C106.258 35.8929 106.102 35.7069 106.001 35.492L106.542 35.1731C106.704 35.461 106.888 35.616 107.095 35.616C107.197 35.6193 107.296 35.5863 107.374 35.5231C107.409 35.4978 107.437 35.4651 107.456 35.4275C107.476 35.3898 107.486 35.3482 107.487 35.306C107.485 35.2234 107.455 35.1438 107.402 35.0801C107.291 34.9515 107.165 34.8356 107.028 34.7346C106.764 34.5312 106.53 34.2944 106.33 34.0304C106.228 33.8904 106.172 33.7237 106.168 33.5519C106.168 33.4409 106.191 33.331 106.237 33.2295C106.283 33.1279 106.349 33.0371 106.434 32.9628C106.612 32.8 106.848 32.7125 107.091 32.7192C107.257 32.72 107.421 32.7595 107.568 32.8344C107.758 32.94 107.924 33.0815 108.059 33.2507ZM112.155 32.8078H113.984V33.4235H112.791V34.0304H113.984V34.6372H112.791V35.5231H113.984V36.1432H112.155V32.8078ZM121.079 33.388L120.629 33.8044C120.502 33.6591 120.345 33.5417 120.169 33.46C119.993 33.3783 119.802 33.3342 119.607 33.3305C119.456 33.3261 119.307 33.3526 119.167 33.4083C119.028 33.4639 118.901 33.5475 118.796 33.6538C118.689 33.7573 118.603 33.8814 118.546 34.0185C118.489 34.1557 118.46 34.3029 118.463 34.4511C118.459 34.6555 118.51 34.8574 118.612 35.0358C118.706 35.2061 118.848 35.346 119.022 35.4389C119.204 35.5369 119.408 35.5872 119.616 35.585C119.791 35.5885 119.964 35.5537 120.124 35.4832C120.314 35.3911 120.485 35.2648 120.629 35.1111L121.079 35.5541C120.877 35.7604 120.639 35.9285 120.376 36.0502C120.137 36.146 119.879 36.1928 119.62 36.1875C119.312 36.1825 119.011 36.0999 118.745 35.9476C118.478 35.7953 118.256 35.5783 118.1 35.3176C117.943 35.0567 117.857 34.7607 117.85 34.4578C117.842 34.1549 117.914 33.8552 118.058 33.5873C118.212 33.3266 118.436 33.1133 118.707 32.9717C118.981 32.8188 119.291 32.738 119.607 32.7369C119.885 32.7372 120.16 32.7967 120.412 32.9114C120.665 33.0261 120.889 33.1933 121.07 33.4014L121.079 33.388ZM124.027 32.7236C124.256 32.7205 124.482 32.7643 124.693 32.852C124.902 32.9397 125.091 33.0694 125.248 33.233C125.415 33.394 125.547 33.5873 125.635 33.8006C125.724 34.014 125.767 34.2429 125.761 34.4733C125.766 34.7001 125.724 34.9256 125.638 35.1359C125.551 35.3462 125.421 35.5367 125.257 35.6958C125.094 35.8562 124.902 35.9835 124.689 36.0704C124.477 36.1573 124.249 36.202 124.018 36.202C123.789 36.202 123.561 36.1573 123.348 36.0704C123.136 35.9835 122.943 35.8562 122.781 35.6958C122.514 35.4217 122.344 35.0706 122.296 34.6942C122.246 34.3179 122.322 33.9361 122.511 33.6051C122.664 33.3425 122.884 33.1241 123.15 32.9717C123.416 32.8195 123.719 32.74 124.027 32.7414V32.7236ZM124.027 33.3393C123.883 33.3363 123.739 33.3631 123.604 33.418C123.47 33.4729 123.349 33.5547 123.249 33.6583C123.138 33.7638 123.05 33.8906 122.992 34.0308C122.933 34.171 122.904 34.3216 122.907 34.4733C122.896 34.6413 122.926 34.8094 122.995 34.9636C123.064 35.1177 123.17 35.2533 123.303 35.3592C123.502 35.5209 123.752 35.6087 124.01 35.6072C124.154 35.6095 124.297 35.5819 124.43 35.5262C124.563 35.4705 124.681 35.388 124.78 35.2838C124.984 35.0674 125.099 34.7825 125.099 34.4866C125.099 34.1907 124.984 33.9058 124.78 33.6893C124.68 33.5843 124.56 33.501 124.425 33.4446C124.291 33.3881 124.147 33.3599 124.001 33.3615L124.027 33.3393ZM127.179 32.8078H127.782L129.227 34.9827V32.8078H129.863V36.1121H129.254L127.819 33.9418V36.1121H127.184V32.8078H127.179ZM133.194 33.2507L132.721 33.6627C132.671 33.5706 132.599 33.4916 132.511 33.4323C132.423 33.373 132.322 33.3351 132.217 33.3216C132.142 33.3184 132.069 33.342 132.01 33.388C131.986 33.4053 131.966 33.4278 131.951 33.454C131.937 33.4801 131.93 33.5091 131.929 33.5387C131.929 33.5956 131.95 33.6505 131.987 33.6937C132.127 33.8519 132.277 33.9998 132.437 34.1366C132.681 34.3359 132.829 34.4644 132.888 34.5176C133 34.6236 133.093 34.748 133.162 34.8852C133.217 35.0066 133.244 35.1379 133.243 35.2706C133.247 35.3965 133.223 35.5217 133.173 35.6377C133.123 35.7539 133.049 35.8582 132.955 35.9438C132.752 36.1227 132.485 36.2165 132.213 36.2052C131.991 36.2097 131.774 36.1495 131.587 36.0324C131.392 35.8929 131.238 35.7069 131.136 35.492L131.677 35.1731C131.839 35.461 132.024 35.616 132.231 35.616C132.332 35.6193 132.431 35.5863 132.51 35.5231C132.544 35.4978 132.572 35.4651 132.592 35.4275C132.611 35.3898 132.622 35.3482 132.622 35.306C132.62 35.2234 132.59 35.1438 132.537 35.0801C132.425 34.9515 132.301 34.8356 132.163 34.7346C131.898 34.5316 131.662 34.2947 131.461 34.0304C131.359 33.8904 131.303 33.7237 131.299 33.5519C131.298 33.4409 131.321 33.331 131.368 33.2295C131.413 33.1279 131.48 33.0371 131.564 32.9628C131.742 32.8 131.978 32.7125 132.222 32.7192C132.388 32.7195 132.551 32.759 132.699 32.8344C132.889 32.94 133.055 33.0815 133.19 33.2507H133.194ZM134.347 32.8078H136.197V33.4279H135.589V36.1121H134.941V33.4279H134.347V32.8078ZM137.498 32.8078H138.178C138.446 32.7928 138.714 32.8258 138.97 32.9053C139.129 32.9697 139.262 33.0832 139.348 33.2286C139.447 33.3902 139.497 33.5761 139.492 33.7646C139.499 33.9579 139.444 34.1483 139.335 34.3094C139.214 34.4652 139.047 34.5811 138.858 34.6416L139.65 36.1121H138.952L138.214 34.7124H138.146V36.1121H137.511V32.8078H137.498ZM138.133 34.1012H138.335C138.482 34.1143 138.628 34.0867 138.758 34.0215C138.799 33.9902 138.831 33.9495 138.851 33.9031C138.871 33.8567 138.88 33.8061 138.876 33.7557C138.876 33.69 138.857 33.6257 138.819 33.5717C138.781 33.5177 138.727 33.4767 138.664 33.4545C138.549 33.4232 138.431 33.4113 138.313 33.419H138.133V34.1012ZM140.951 32.8078H141.591V34.9428C141.583 35.0745 141.6 35.2065 141.64 35.3326C141.671 35.4105 141.729 35.4758 141.802 35.5186C141.884 35.5644 141.977 35.5874 142.072 35.585C142.175 35.5871 142.276 35.5611 142.365 35.5098C142.441 35.4653 142.5 35.3965 142.531 35.3149C142.571 35.1707 142.588 35.0212 142.58 34.8719V32.8078H143.22V34.7745C143.231 35.0077 143.21 35.2415 143.161 35.4699C143.119 35.6086 143.045 35.736 142.945 35.842C142.845 35.957 142.719 36.0478 142.576 36.1077C142.421 36.1673 142.256 36.1959 142.09 36.1919C141.867 36.1979 141.647 36.141 141.455 36.028C141.288 35.9314 141.153 35.7881 141.068 35.616C140.974 35.3456 140.934 35.0598 140.951 34.7745V32.8078ZM147.853 33.388L147.403 33.8044C147.274 33.6591 147.118 33.5419 146.941 33.4603C146.764 33.3786 146.571 33.3344 146.376 33.3305C146.223 33.3274 146.072 33.355 145.931 33.4115C145.789 33.468 145.661 33.5524 145.554 33.6594C145.447 33.7664 145.363 33.8937 145.308 34.0337C145.253 34.1736 145.227 34.3232 145.233 34.4733C145.229 34.6771 145.278 34.8784 145.377 35.058C145.472 35.2285 145.616 35.3685 145.791 35.461C145.971 35.5594 146.175 35.6098 146.381 35.6072C146.555 35.6111 146.729 35.5763 146.889 35.5053C147.08 35.4124 147.253 35.2863 147.398 35.1332L147.848 35.5762C147.647 35.7825 147.409 35.9507 147.146 36.0723C146.907 36.1679 146.652 36.2146 146.394 36.2096C146.082 36.2081 145.776 36.127 145.506 35.9741C145.235 35.8213 145.009 35.602 144.851 35.3377C144.693 35.0733 144.607 34.773 144.602 34.4662C144.597 34.1594 144.673 33.8566 144.823 33.5873C144.979 33.3286 145.203 33.1159 145.471 32.9717C145.746 32.819 146.056 32.7381 146.372 32.7369C146.649 32.7379 146.923 32.7977 147.175 32.9123C147.427 33.027 147.65 33.1938 147.83 33.4014L147.853 33.388ZM146.029 36.0723L145.949 36.3425H146.079C146.126 36.3383 146.173 36.3492 146.214 36.3735C146.228 36.3847 146.24 36.3989 146.247 36.415C146.255 36.4311 146.259 36.4487 146.259 36.4665C146.259 36.4889 146.254 36.511 146.244 36.531C146.234 36.551 146.219 36.5684 146.2 36.5817C146.149 36.6156 146.087 36.6312 146.025 36.626C145.916 36.6253 145.808 36.6073 145.705 36.5728L145.624 36.8651C145.785 36.9274 145.956 36.9619 146.128 36.9671C146.29 36.9806 146.451 36.9331 146.579 36.8342C146.627 36.7977 146.666 36.7507 146.692 36.6969C146.719 36.6431 146.732 36.5839 146.732 36.5241C146.731 36.4452 146.7 36.3695 146.647 36.3115C146.582 36.2438 146.499 36.1974 146.408 36.1786L146.435 36.0767L146.029 36.0723ZM150.801 32.7236C151.031 32.721 151.258 32.7649 151.468 32.8525C151.679 32.9402 151.869 33.0698 152.026 33.233C152.191 33.3957 152.32 33.5895 152.406 33.8027C152.491 34.0158 152.532 34.244 152.526 34.4733C152.531 34.7001 152.489 34.9256 152.403 35.1359C152.316 35.3462 152.186 35.5367 152.022 35.6958C151.859 35.8562 151.667 35.9835 151.454 36.0704C151.242 36.1573 151.013 36.202 150.783 36.202C150.554 36.202 150.326 36.1573 150.113 36.0704C149.9 35.9835 149.708 35.8562 149.546 35.6958C149.384 35.5349 149.256 35.344 149.17 35.1341C149.085 34.9241 149.042 34.6995 149.046 34.4733C149.044 34.2465 149.088 34.0216 149.175 33.8115C149.262 33.6014 149.391 33.4104 149.553 33.2494C149.715 33.0884 149.908 32.9606 150.121 32.8734C150.334 32.7863 150.562 32.7414 150.792 32.7414L150.801 32.7236ZM150.801 33.3393C150.657 33.3365 150.513 33.3635 150.378 33.4184C150.244 33.4732 150.123 33.5549 150.023 33.6583C149.918 33.7655 149.835 33.8926 149.781 34.0319C149.727 34.1712 149.702 34.3198 149.708 34.4688C149.697 34.6369 149.727 34.805 149.796 34.9591C149.865 35.1133 149.971 35.2489 150.103 35.3548C150.304 35.5175 150.556 35.6053 150.815 35.6028C150.96 35.6051 151.102 35.5775 151.235 35.5218C151.368 35.4661 151.487 35.3835 151.585 35.2794C151.789 35.0624 151.902 34.7778 151.902 34.4821C151.902 34.1865 151.789 33.9018 151.585 33.6848C151.486 33.5795 151.365 33.4958 151.231 33.4394C151.097 33.3829 150.952 33.3549 150.806 33.3571L150.801 33.3393ZM150.099 32.5376L149.847 32.1656C150.013 32.0289 150.221 31.951 150.437 31.9441C150.567 31.9548 150.695 31.98 150.819 32.0193C150.914 32.049 151.013 32.0654 151.112 32.0681C151.252 32.0666 151.39 32.0267 151.508 31.9529L151.747 32.3072C151.596 32.4475 151.4 32.5319 151.193 32.5465C151.075 32.544 150.959 32.5245 150.847 32.4889L150.639 32.4313H150.5C150.359 32.4342 150.22 32.4739 150.099 32.5465V32.5376ZM153.966 32.8078H155.772V33.4235H154.579V34.0304H155.772V34.6372H154.579V35.5231H155.772V36.1432H153.971V32.8078H153.966ZM158.96 33.2507L158.486 33.6627C158.436 33.57 158.363 33.4907 158.274 33.4314C158.186 33.372 158.084 33.3343 157.978 33.3216C157.904 33.3183 157.832 33.342 157.775 33.388C157.751 33.4053 157.731 33.4278 157.717 33.454C157.703 33.4801 157.695 33.5091 157.694 33.5387C157.694 33.5956 157.715 33.6505 157.753 33.6937C157.891 33.853 158.041 34.0011 158.203 34.1366C158.446 34.3359 158.595 34.4644 158.653 34.5176C158.767 34.6225 158.86 34.7472 158.928 34.8852C158.982 35.0066 159.01 35.1379 159.009 35.2706C159.013 35.3962 158.99 35.5211 158.941 35.6372C158.892 35.7533 158.819 35.8578 158.725 35.9438C158.521 36.1227 158.255 36.2165 157.983 36.2052C157.761 36.2105 157.543 36.1503 157.357 36.0324C157.162 35.8929 157.008 35.7069 156.906 35.492L157.442 35.1731C157.604 35.461 157.789 35.616 158 35.616C158.101 35.6168 158.2 35.584 158.28 35.5231C158.312 35.4969 158.339 35.4639 158.358 35.4264C158.377 35.3889 158.387 35.3478 158.388 35.306C158.386 35.2242 158.357 35.1452 158.307 35.0801C158.195 34.9526 158.069 34.8368 157.933 34.7346C157.661 34.5341 157.418 34.297 157.213 34.0304C157.111 33.8904 157.055 33.7237 157.05 33.5519C157.05 33.4409 157.073 33.331 157.12 33.2295C157.165 33.1279 157.232 33.0371 157.316 32.9628C157.403 32.8809 157.507 32.8172 157.62 32.7753C157.732 32.7335 157.853 32.7144 157.974 32.7192C158.139 32.72 158.303 32.7595 158.451 32.8344C158.633 32.9443 158.794 33.087 158.923 33.2551L158.96 33.2507Z" fill="#96989A"/>
</g>
</svg>
