<svg xmlns="http://www.w3.org/2000/svg" width="94" height="101" viewBox="0 0 94 101" fill="none"><path fill-rule="evenodd" clip-rule="evenodd" d="M32.2683 0.87691C20.0295 2.43154 5.64646 6.90769 2.32088 10.1958C1.3699 11.1363 0.419552 12.7596 0.209636 13.8031C-0.000916123 14.8467 -0.0632547 25.2878 0.0703282 37.0059C0.299328 57.0544 0.39856 58.5735 1.74966 62.7488C7.41612 80.2595 20.9423 93.1443 39.9894 99.1763C45.8486 101.032 48.1258 101.032 53.985 99.1763C73.0314 93.1449 86.5507 80.2666 92.2267 62.7488C93.5854 58.5557 93.677 57.1012 93.9034 36.2739C94.1178 16.5239 94.0307 14.0169 93.0682 12.1283C91.7229 9.48867 89.8762 8.28524 83.9979 6.21713C68.0908 0.621655 49.4362 -1.30372 32.2683 0.87691ZM66.7066 7.95417C73.9767 9.46498 85.2384 13.0842 86.592 14.3444C87.7408 15.414 87.7866 16.4457 87.5411 35.7053C87.3337 51.9576 87.0824 56.5859 86.265 59.209C82.3969 71.6264 75.357 80.9761 65.1036 87.3137C59.6852 90.6628 50.5017 94.1061 46.9872 94.1061C43.4759 94.1061 34.2994 90.667 28.8632 87.3137C17.5576 80.3401 9.09354 67.9321 6.9842 55.2368C5.95943 49.0716 6.03067 15.889 7.07135 14.6672C8.65589 12.807 20.4436 9.19728 30.7664 7.41168C37.7305 6.20707 59.911 6.54168 66.7066 7.95417Z" fill="white"></path><path fill-rule="evenodd" clip-rule="evenodd" d="M44.1661 21.1552C43.8368 21.2573 43.3263 21.4991 43.0317 21.6927C42.1687 22.2595 23.0637 37.9516 22.9194 38.2123C22.8473 38.3428 22.7881 38.7158 22.7881 39.0412C22.7881 39.545 22.8543 39.6969 23.2342 40.064C23.8518 40.6609 24.6545 40.6884 25.4122 40.1387C25.6648 39.9555 30.0339 36.4065 35.1214 32.2521C40.2089 28.0978 44.5575 24.5722 44.7852 24.4178C45.3234 24.0524 46.0428 24.0522 46.5816 24.417C46.8093 24.5712 50.4199 27.4976 54.6054 30.9202C58.7908 34.3428 62.4323 37.3016 62.6974 37.4955C63.5613 38.1267 64.7871 37.8982 65.2153 37.026C65.5061 36.4337 65.485 36.0467 65.1346 35.5445C64.9721 35.3118 61.1291 32.0848 56.5944 28.3732C50.6435 23.5026 48.1611 21.5463 47.6725 21.3423C46.8036 20.9797 45.0367 20.8854 44.1661 21.1552ZM56.7721 21.5991C56.5206 21.6588 56.1516 21.8841 55.952 22.1C55.6562 22.42 55.5894 22.6116 55.5894 23.1411C55.5894 23.7153 55.641 23.8367 56.0378 24.1987C56.6056 24.716 56.9416 24.7677 59.7552 24.7694L62.0184 24.7708L62.0216 27.0217C62.0233 28.2597 62.0788 29.5008 62.1451 29.7798C62.3198 30.5162 62.9407 30.9845 63.7426 30.9845C64.2615 30.9845 64.435 30.9174 64.8169 30.5693C65.4129 30.026 65.4636 29.6095 65.4079 25.7159C65.3448 21.3135 65.6052 21.5466 60.7126 21.5139C58.7968 21.501 57.0236 21.5395 56.7721 21.5991ZM29.8683 40.9707C29.6276 41.1792 29.417 41.5235 29.3445 41.8267C29.1795 42.5178 29.1871 57.4423 29.3531 58.5518C29.528 59.7211 29.8582 60.3969 30.6507 61.2067C31.4795 62.0536 32.4744 62.5491 33.6377 62.694C34.6603 62.8214 43.4588 62.8518 44.2181 62.7305C44.523 62.6818 44.8972 62.4893 45.1693 62.2414C45.5662 61.8795 45.6178 61.758 45.6178 61.1838C45.6178 60.3738 45.1687 59.8175 44.3713 59.6397C44.0827 59.5753 41.5334 59.5212 38.706 59.5196L33.5655 59.5165L33.097 59.0894L32.6285 58.6624L32.6253 50.4981C32.6236 45.9723 32.5683 42.1078 32.5011 41.8267C32.319 41.0636 31.7402 40.622 30.9228 40.622C30.3968 40.622 30.1932 40.6893 29.8683 40.9707ZM58.3732 40.8057C56.2185 41.31 54.1366 42.9535 53.1327 44.9427C52.5079 46.1807 52.3632 46.7756 52.2367 48.6257L52.1446 49.9719L51.1072 50.0406C49.9951 50.1143 49.5785 50.2923 49.195 50.858C48.9798 51.1752 48.9635 51.7808 48.9635 59.4476C48.9635 63.984 49.0083 67.8501 49.063 68.0388C49.1177 68.2274 49.3788 68.5413 49.6432 68.7362L50.1239 69.0906H60.444H70.7641L71.2448 68.7362C71.5092 68.5413 71.7703 68.2274 71.825 68.0388C71.8797 67.8501 71.9244 63.984 71.9244 59.4476C71.9244 51.7808 71.9082 51.1752 71.693 50.858C71.3095 50.2923 70.8929 50.1143 69.7808 50.0406L68.7434 49.9719L68.6513 48.6257C68.5248 46.7746 68.3801 46.1807 67.7533 44.9387C66.9955 43.4371 65.6161 42.1045 64.0921 41.4012C63.4928 41.1248 62.6896 40.8363 62.3072 40.7602C61.3887 40.5776 59.242 40.6024 58.3732 40.8057ZM62.5872 44.2311C63.4769 44.6662 64.4667 45.6402 64.9118 46.5186C65.1825 47.0528 65.2399 47.3771 65.2771 48.5793L65.3211 50.0059H60.444H55.5668L55.6109 48.5793C55.6614 46.9439 55.9017 46.3035 56.8306 45.3279C57.9395 44.1631 58.9191 43.7789 60.6496 43.8301C61.6571 43.8599 61.9538 43.9213 62.5872 44.2311ZM68.5787 59.5799V65.857H60.3784H52.1781V59.5799V53.3029H60.3784H68.5787V59.5799ZM59.6091 57.4198C57.6798 58.0845 57.412 60.5239 59.1468 61.6334C60.6131 62.5713 62.5943 61.663 62.8826 59.9209C63.059 58.8538 62.2467 57.6664 61.1364 57.3684C60.498 57.1971 60.2292 57.2061 59.6091 57.4198Z" fill="white"></path></svg>