<svg xmlns="http://www.w3.org/2000/svg" width="23" height="45" viewBox="0 0 23 45" fill="none"><mask id="path-1-inside-1" fill="white"><path fill-rule="evenodd" clip-rule="evenodd" d="M12.1065 44.0607L21.6525 34.5147C22.2382 33.9289 22.2382 32.9792 21.6525 32.3934C21.0667 31.8076 20.1169 31.8076 19.5311 32.3934L12.5459 39.3787L12.5459 27.5669L12.5459 16.8761C16.5475 16.1863 19.5917 12.6987 19.5917 8.5C19.5917 3.80558 15.7861 -2.75629e-07 11.0917 -4.80829e-07C6.3973 -6.86028e-07 2.59172 3.80558 2.59172 8.5C2.59172 12.6665 5.58951 16.1328 9.54585 16.8598L9.54585 27.5669L9.54585 39.3787L2.56057 32.3934C1.97479 31.8076 1.02504 31.8076 0.439251 32.3934C-0.146535 32.9792 -0.146535 33.9289 0.439251 34.5147L9.98519 44.0607C10.571 44.6464 11.5207 44.6464 12.1065 44.0607Z"/></mask><path fill-rule="evenodd" clip-rule="evenodd" d="M12.1065 44.0607L21.6525 34.5147C22.2382 33.9289 22.2382 32.9792 21.6525 32.3934C21.0667 31.8076 20.1169 31.8076 19.5311 32.3934L12.5459 39.3787L12.5459 27.5669L12.5459 16.8761C16.5475 16.1863 19.5917 12.6987 19.5917 8.5C19.5917 3.80558 15.7861 -2.75629e-07 11.0917 -4.80829e-07C6.3973 -6.86028e-07 2.59172 3.80558 2.59172 8.5C2.59172 12.6665 5.58951 16.1328 9.54585 16.8598L9.54585 27.5669L9.54585 39.3787L2.56057 32.3934C1.97479 31.8076 1.02504 31.8076 0.439251 32.3934C-0.146535 32.9792 -0.146535 33.9289 0.439251 34.5147L9.98519 44.0607C10.571 44.6464 11.5207 44.6464 12.1065 44.0607Z" fill="white"/><path d="M21.6525 34.5147L25.188 38.0503L25.188 38.0502L21.6525 34.5147ZM12.1065 44.0607L15.642 47.5962L15.642 47.5962L12.1065 44.0607ZM21.6525 32.3934L25.188 28.8579L25.188 28.8579L21.6525 32.3934ZM19.5311 32.3934L15.9956 28.8579L15.9956 28.8579L19.5311 32.3934ZM12.5459 39.3787L7.54585 39.3787L7.54585 51.4498L16.0814 42.9142L12.5459 39.3787ZM12.5459 16.8761L11.6965 11.9488L7.54585 12.6643L7.54585 16.8761L12.5459 16.8761ZM9.54585 16.8598L14.5459 16.8598L14.5459 12.6948L10.4494 11.9421L9.54585 16.8598ZM9.54585 27.5669L14.5459 27.5669L9.54585 27.5669ZM9.54585 39.3787L6.01032 42.9142L14.5459 51.4498L14.5459 39.3787L9.54585 39.3787ZM2.56057 32.3934L6.09611 28.8579L2.56057 32.3934ZM0.439251 32.3934L-3.09628 28.8579L-3.09629 28.8579L0.439251 32.3934ZM0.439251 34.5147L-3.09629 38.0502L-3.09628 38.0503L0.439251 34.5147ZM9.98519 44.0607L6.44966 47.5962L6.44966 47.5962L9.98519 44.0607ZM18.1169 30.9792L8.57098 40.5251L15.642 47.5962L25.188 38.0503L18.1169 30.9792ZM18.1169 35.9289C16.7501 34.5621 16.7501 32.346 18.1169 30.9792L25.188 38.0502C27.7264 35.5118 27.7264 31.3963 25.188 28.8579L18.1169 35.9289ZM23.0667 35.9289C21.6998 37.2958 19.4838 37.2958 18.1169 35.9289L25.188 28.8579C22.6496 26.3195 18.534 26.3195 15.9956 28.8579L23.0667 35.9289ZM16.0814 42.9142L23.0667 35.9289L15.9956 28.8579L9.01032 35.8431L16.0814 42.9142ZM7.54585 27.5669L7.54585 39.3787L17.5459 39.3787L17.5459 27.5669L7.54585 27.5669ZM7.54585 16.8761L7.54585 27.5669L17.5459 27.5669L17.5459 16.8761L7.54585 16.8761ZM14.5917 8.5C14.5917 10.2238 13.3406 11.6654 11.6965 11.9488L13.3952 21.8034C19.7544 20.7072 24.5917 15.1735 24.5917 8.5L14.5917 8.5ZM11.0917 5C13.0247 5 14.5917 6.567 14.5917 8.5L24.5917 8.5C24.5917 1.04416 18.5476 -5 11.0917 -5L11.0917 5ZM7.59172 8.5C7.59172 6.567 9.15873 5 11.0917 5L11.0917 -5C3.63588 -5 -2.40828 1.04416 -2.40828 8.5L7.59172 8.5ZM10.4494 11.9421C8.82341 11.6433 7.59172 10.2103 7.59172 8.5L-2.40828 8.5C-2.40828 15.1228 2.35561 20.6224 8.6423 21.7774L10.4494 11.9421ZM14.5459 27.5669L14.5459 16.8598L4.54585 16.8598L4.54585 27.5669L14.5459 27.5669ZM14.5459 39.3787L14.5459 27.5669L4.54585 27.5669L4.54585 39.3787L14.5459 39.3787ZM-0.974962 35.9289L6.01032 42.9142L13.0814 35.8431L6.09611 28.8579L-0.974962 35.9289ZM3.97479 35.9289C2.60795 37.2958 0.391873 37.2958 -0.974962 35.9289L6.09611 28.8579C3.5577 26.3195 -0.557874 26.3195 -3.09628 28.8579L3.97479 35.9289ZM3.97479 30.9792C5.34162 32.346 5.34162 34.5621 3.97479 35.9289L-3.09629 28.8579C-5.63469 31.3963 -5.63469 35.5118 -3.09629 38.0502L3.97479 30.9792ZM13.5207 40.5251L3.97479 30.9792L-3.09628 38.0503L6.44966 47.5962L13.5207 40.5251ZM8.57099 40.5251C9.93782 39.1583 12.1539 39.1583 13.5207 40.5251L6.44966 47.5962C8.98807 50.1346 13.1036 50.1346 15.642 47.5962L8.57099 40.5251Z" fill="#F58634" mask="url(#path-1-inside-1)"/></svg>